<svg width="64" height="64" viewBox="0 0 64 64" fill="none" xmlns="http://www.w3.org/2000/svg">
<g clip-path="url(#clip0_449_73)">
<rect width="64" height="64" rx="13.8667" fill="#9A91FE"/>
<path fill-rule="evenodd" clip-rule="evenodd" d="M-3.41333 14.08C-2.17246 12.0942 -3.05247 9.06451 -1.06667 10.3054L11.0212 17.4901C14.249 13.8756 18.5865 11.1886 23.6672 10.0156C28.7134 8.8506 33.7553 9.34934 38.2183 11.1527L47.7543 -5.01334C48.9951 -6.99915 52.0942 -8.06754 54.08 -6.82667C56.0658 -5.5858 58.3497 -6.25248 57.1088 -4.26667L45.4095 15.6463C48.9868 18.867 51.6453 23.18 52.8103 28.2262C53.9833 33.3069 53.4697 38.3834 51.6359 42.8689L65.3399 50.9867C67.3257 52.2275 65.9875 54.2275 64.7467 56.2133C63.5058 58.1991 64.1725 60.1926 62.1867 58.9517L47.1132 50.042C43.8997 53.5822 39.6113 56.2122 34.5997 57.3693C29.5535 58.5343 24.5116 58.0355 20.0486 56.2322L13.9305 66.4647C12.6897 68.4505 11.6925 67.7055 9.70667 66.4647C7.72086 65.2238 3.55913 67.4793 4.8 65.4935L12.8574 51.7386C9.2801 48.5178 6.62161 44.2048 5.45661 39.1587C4.2996 34.1471 4.78358 29.1397 6.55679 24.6995L-4.20682 18.278C-6.19263 17.0372 -4.6542 16.0658 -3.41333 14.08ZM24.651 48.8669C27.1822 49.6171 29.9362 49.7431 32.6922 49.1069C35.4129 48.4787 37.8063 47.1837 39.7395 45.4343L30.4306 39.6175L24.651 48.8669ZM23.2394 35.1239L17.4597 44.3733C15.6758 42.4272 14.3553 40.0071 13.719 37.2511C13.0909 34.5304 13.2057 31.8116 13.9305 29.3071L23.2394 35.1239ZM34.9242 32.4263L44.2789 38.2717C45.0548 35.714 45.1923 32.9249 44.5479 30.1337C43.9116 27.3778 42.5911 24.9577 40.8072 23.0116L34.9242 32.4263ZM33.6159 18.518L27.733 27.9327L18.3783 22.0873C20.337 20.2686 22.7836 18.9224 25.5748 18.278C28.3307 17.6418 31.0848 17.7678 33.6159 18.518Z" fill="#312D65"/>
</g>
<defs>
<clipPath id="clip0_449_73">
<rect width="64" height="64" rx="13.8667" fill="white"/>
</clipPath>
</defs>
</svg>
